<svg xmlns="http://www.w3.org/2000/svg" width="552" height="268" viewBox="0 0 552 268" xmlns:xlink="http://www.w3.org/1999/xlink">
  <defs>
    <path id="a" d="M58,-4.41259384e-14 C66.2842712,-3.79547099e-14 73,6.7131738 73,15.0069723 L73,50.007019 C73,53.316851 70.3112985,56 67.001155,56 L48.998845,56 C45.6857744,56 43,53.3178698 43,50.007019 L43,12.1849563 C43.8150308,12.3906175 44.6694861,12.5 45.55,12.5 C51.1833044,12.5 55.75,8.0228475 55.75,2.5 C55.75,1.63675108 55.6384298,0.799049806 55.4286554,-1.13686838e-13 L58,-4.41259384e-14 Z"/>
    <mask id="c" width="30" height="56" x="0" y="0" fill="white">
      <use xlink:href="#a"/>
    </mask>
    <path id="b" d="M71,29.993278 L71,13.006722 C71,9 68.2747445,4.78622428 65,3 C61.7252555,1.21377572 58,1 58,1 C58,1 56.9938327,5.17797333 56,7 C54.9938327,8.84464 53.7717832,10.2344442 51,12 C48.2282168,13.7655558 45,14.006722 45,14.006722 L45,34.993278 C45,37.2070888 46.790861,39 49,39 C51.0510587,39 52.7478689,37.4473613 52.9743293,35.4491838 C52.982866,35.454214 53,32.0019996 53,32.0019996 C53,30.8963257 53.8877296,30 55,30 C56.1045695,30 57,30.8981161 57,32.0019996 L57,35.4628139 C57.2507382,37.447449 58.9442676,39 61,39 C63.2046438,39 65,37.2061295 65,34.993278 L65,34.2287299 L65,33.4641817 L65,22.0019996 C65,20.8963257 65.8877296,20 67,20 C68.1045695,20 69,20.8981161 69,22.0019996 L69,33.4628168 C70.1944823,32.7697474 71,31.4755042 71,29.993278 Z"/>
    <mask id="d" width="26" height="38" x="0" y="0" fill="white">
      <use xlink:href="#b"/>
    </mask>
  </defs>
  <g fill="none" fill-rule="evenodd">
    <path fill="#288F73" d="M110 61C110 60.4477153 109.552285 60 109 60 108.447715 60 108 60.4477153 108 61 108 64.8659932 105.865993 67 102 67 101.447715 67 101 67.4477153 101 68 101 68.5522847 101.447715 69 102 69 105.865993 69 108 71.1340068 108 75 108 75.5522847 108.447715 76 109 76 109.552285 76 110 75.5522847 110 75 110 71.1340068 113.134007 69 117 69L116 69C116.552285 69 117 68.5522847 117 68 117 67.4477153 116.552285 67 116 67 112.134007 67 110 64.8659932 110 61zM444 61C444 60.4477153 443.552285 60 443 60 442.447715 60 442 60.4477153 442 61 442 64.8659932 439.865993 67 436 67 435.447715 67 435 67.4477153 435 68 435 68.5522847 435.447715 69 436 69 439.865993 69 442 71.1340068 442 75 442 75.5522847 442.447715 76 443 76 443.552285 76 444 75.5522847 444 75 444 71.1340068 447.134007 69 451 69L450 69C450.552285 69 451 68.5522847 451 68 451 67.4477153 450.552285 67 450 67 446.134007 67 444 64.8659932 444 61zM277 253C277 252.447715 276.552285 252 276 252 275.447715 252 275 252.447715 275 253 275 256.865993 272.865993 259 269 259 268.447715 259 268 259.447715 268 260 268 260.552285 268.447715 261 269 261 272.865993 261 275 263.134007 275 267 275 267.552285 275.447715 268 276 268 276.552285 268 277 267.552285 277 267 277 263.134007 280.134007 261 284 261L283 261C283.552285 261 284 260.552285 284 260 284 259.447715 283.552285 259 283 259 279.134007 259 277 256.865993 277 253z"/>
    <path fill="#124235" d="M30.048,95.424 C32.64,95.424 34.752,97.248 33.024,101.952 L29.376,101.952 C29.088,103.104 28.8,104.64 28.8,106.08 C28.8,110.016 31.296,112.896 36.48,112.896 C40.992,112.896 44.448,110.304 44.448,104.544 C44.448,99.84 41.184,93.792 29.184,93.792 C11.904,93.792 6.24,104.448 6.24,121.92 L6.24,122.304 L0.672,122.304 L0.672,124.032 L6.24,124.032 L6.24,166.272 L0.96,166.272 L0.96,168 L35.808,168 L35.808,166.272 L24.096,166.272 L24.096,124.032 L36.768,124.032 L36.768,122.304 L24.096,122.304 L24.096,106.944 C24.096,99.648 24.864,95.424 30.048,95.424 L30.048,95.424 Z M69.792,124.992 C71.808,124.992 73.728,125.952 71.808,129.888 L68.352,129.888 C66.336,136.704 69.408,140.736 75.84,140.736 C81.024,140.736 83.904,137.088 83.904,131.616 C83.904,124.32 79.392,121.344 73.728,121.344 C67.968,121.344 62.592,124.704 60.864,131.52 L60.864,122.304 L37.728,122.304 L37.728,124.032 L43.008,124.032 L43.008,166.272 L37.728,166.272 L37.728,168 L67.68,168 L67.68,166.272 L60.864,166.272 L60.864,140.544 C60.864,131.904 65.184,124.992 69.792,124.992 L69.792,124.992 Z M85.728,145.248 C85.728,159.168 93.408,168.96 110.496,168.96 C124.128,168.96 129.12,162.624 131.328,154.368 L129.6,154.08 C127.488,161.472 122.688,165.984 115.584,165.984 C106.272,165.984 104.256,158.304 104.256,146.976 L104.256,143.232 L131.328,143.232 C131.904,128.928 125.472,121.344 110.4,121.344 C97.056,121.344 85.728,128.64 85.728,145.248 L85.728,145.248 Z M104.352,141.312 L104.352,136.608 C104.352,126.432 106.176,123.168 109.536,123.168 C113.472,123.168 114.24,126.528 114.24,136.608 L114.24,141.312 L104.352,141.312 Z M136.992,168.96 L138.144,168.96 C139.68,166.272 141.024,165.408 142.272,165.408 C142.656,165.408 143.52,165.792 144.096,166.176 C147.744,168 151.008,168.96 155.616,168.96 C166.464,168.96 173.568,163.488 173.568,152.544 C173.568,141.216 165.12,138.144 157.536,136.128 C151.2,134.4 145.44,133.344 145.44,128.928 C145.44,125.952 148.032,123.36 154.368,123.36 C161.184,123.36 166.08,127.008 169.536,135.84 L170.688,135.84 L170.688,121.152 L169.632,121.152 C168.384,123.552 167.712,124.32 166.272,124.32 C165.12,124.32 164.736,124.032 163.584,123.552 C160.992,122.4 158.112,121.344 153.888,121.344 C143.712,121.344 136.992,127.776 136.992,137.568 C136.992,148.224 145.536,151.2 153.216,153.312 C160.512,155.328 165.216,156.288 165.216,160.608 C165.216,164.256 162.528,166.848 155.424,166.848 C147.552,166.848 141.696,163.488 138.144,151.776 L136.992,151.776 L136.992,168.96 Z M176.448,96 L176.448,97.728 L181.728,97.728 L181.728,166.272 L176.448,166.272 L176.448,168 L203.712,168 L203.712,166.272 L199.584,166.272 L199.584,139.776 C199.584,132 203.328,125.952 207.36,125.952 C209.76,125.952 210.912,126.912 210.912,135.072 L210.912,166.272 L206.976,166.272 L206.976,168 L234.144,168 L234.144,166.272 L228.768,166.272 L228.768,137.376 C228.768,125.76 222.816,121.344 213.888,121.344 C204.384,121.344 201.216,126.336 199.584,131.136 L199.584,96 L176.448,96 Z M252.864,96 L252.864,97.728 L258.144,97.728 L258.144,166.272 L252.864,166.272 L252.864,168 L280.128,168 L280.128,166.272 L276,166.272 L276,139.776 C276,132 279.744,125.952 283.776,125.952 C286.176,125.952 287.328,126.912 287.328,135.072 L287.328,166.272 L283.392,166.272 L283.392,168 L310.56,168 L310.56,166.272 L305.184,166.272 L305.184,137.376 C305.184,125.76 299.232,121.344 290.304,121.344 C280.8,121.344 277.632,126.336 276,131.136 L276,96 L252.864,96 Z M312.48,145.248 C312.48,159.168 320.16,168.96 337.248,168.96 C350.88,168.96 355.872,162.624 358.08,154.368 L356.352,154.08 C354.24,161.472 349.44,165.984 342.336,165.984 C333.024,165.984 331.008,158.304 331.008,146.976 L331.008,143.232 L358.08,143.232 C358.656,128.928 352.224,121.344 337.152,121.344 C323.808,121.344 312.48,128.64 312.48,145.248 L312.48,145.248 Z M331.104,141.312 L331.104,136.608 C331.104,126.432 332.928,123.168 336.288,123.168 C340.224,123.168 340.992,126.528 340.992,136.608 L340.992,141.312 L331.104,141.312 Z M393.6,124.992 C395.616,124.992 397.536,125.952 395.616,129.888 L392.16,129.888 C390.144,136.704 393.216,140.736 399.648,140.736 C404.832,140.736 407.712,137.088 407.712,131.616 C407.712,124.32 403.2,121.344 397.536,121.344 C391.776,121.344 386.4,124.704 384.672,131.52 L384.672,122.304 L361.536,122.304 L361.536,124.032 L366.816,124.032 L366.816,166.272 L361.536,166.272 L361.536,168 L391.488,168 L391.488,166.272 L384.672,166.272 L384.672,140.544 C384.672,131.904 388.992,124.992 393.6,124.992 L393.6,124.992 Z M440.064,149.088 C440.064,161.568 439.776,167.232 434.304,167.232 C428.448,167.232 428.256,160.032 428.256,148.896 L428.256,141.408 C428.256,130.56 428.544,123.072 434.4,123.072 C439.776,123.072 440.064,130.56 440.064,140.928 L440.064,149.088 Z M409.824,145.344 C409.824,160.32 417.984,168.96 434.112,168.96 C451.2,168.96 458.496,160.224 458.496,144.48 C458.496,128.928 450.816,121.344 434.688,121.344 C419.232,121.344 409.824,129.6 409.824,145.344 L409.824,145.344 Z M461.664,145.248 C461.664,159.168 469.344,168.96 486.432,168.96 C500.064,168.96 505.056,162.624 507.264,154.368 L505.536,154.08 C503.424,161.472 498.624,165.984 491.52,165.984 C482.208,165.984 480.192,158.304 480.192,146.976 L480.192,143.232 L507.264,143.232 C507.84,128.928 501.408,121.344 486.336,121.344 C472.992,121.344 461.664,128.64 461.664,145.248 L461.664,145.248 Z M480.288,141.312 L480.288,136.608 C480.288,126.432 482.112,123.168 485.472,123.168 C489.408,123.168 490.176,126.528 490.176,136.608 L490.176,141.312 L480.288,141.312 Z M512.928,168.96 L514.08,168.96 C515.616,166.272 516.96,165.408 518.208,165.408 C518.592,165.408 519.456,165.792 520.032,166.176 C523.68,168 526.944,168.96 531.552,168.96 C542.4,168.96 549.504,163.488 549.504,152.544 C549.504,141.216 541.056,138.144 533.472,136.128 C527.136,134.4 521.376,133.344 521.376,128.928 C521.376,125.952 523.968,123.36 530.304,123.36 C537.12,123.36 542.016,127.008 545.472,135.84 L546.624,135.84 L546.624,121.152 L545.568,121.152 C544.32,123.552 543.648,124.32 542.208,124.32 C541.056,124.32 540.672,124.032 539.52,123.552 C536.928,122.4 534.048,121.344 529.824,121.344 C519.648,121.344 512.928,127.776 512.928,137.568 C512.928,148.224 521.472,151.2 529.152,153.312 C536.448,155.328 541.152,156.288 541.152,160.608 C541.152,164.256 538.464,166.848 531.36,166.848 C523.488,166.848 517.632,163.488 514.08,151.776 L512.928,151.776 L512.928,168.96 Z"/>
    <g transform="translate(218)">
      <path fill="#124235" d="M18.235743,17 L33.235743,20 C40.235743,22 36.235743,27 31.235743,26 L27.235743,25 C26.9551869,27.3648476 22.7602147,28.646411 20.235743,28 L18.235743,27 C17.8544664,29.3285906 15.235743,31 12.235743,30 C10.235743,29 9.66057813,28.2888051 9.235743,28 C9.66057813,28.2888051 0.235743003,33 0.235743003,33 L11.235743,19 C13.235743,17 16.1595932,16.6812135 18.235743,17 Z" transform="matrix(-1 0 0 1 37.236 0)"/>
      <path fill="#124235" d="M97.235743 17L112.235743 20C119.235743 22 115.235743 27 110.235743 26L106.235743 25C105.955187 27.3648476 101.760215 28.646411 99.235743 28L97.235743 27C96.8544664 29.3285906 94.235743 31 91.235743 30 89.235743 29 88.6605781 28.2888051 88.235743 28 88.6605781 28.2888051 79.235743 33 79.235743 33L90.235743 19C92.235743 17 95.1595932 16.6812135 97.235743 17zM57 58L57 71.0078595C57 71.5567862 57.4441888 72 58 72 58.5507071 72 59 71.5517613 59 71.0078595L59 58 57 58zM63 56L63 71.0078595C63 73.7649426 60.7558048 76 58 76 55.2385763 76 53 73.769453 53 71.0078595L53 56 63 56z"/>
      <use stroke="#124235" stroke-width="8" mask="url(#c)" xlink:href="#a"/>
      <use stroke="#124235" stroke-width="4" mask="url(#d)" xlink:href="#b"/>
    </g>
    <path fill="#124235" d="M128.890625,213.046875 C128.890625,212.593748 128.774741,212.235678 128.542969,211.972656 C128.311197,211.709634 127.895836,211.453126 127.296875,211.203125 C126.130203,210.791665 125.252607,210.325523 124.664063,209.804688 C124.075518,209.283852 123.78125,208.554692 123.78125,207.617188 C123.78125,206.684891 124.117184,205.925784 124.789063,205.339844 C125.460941,204.753903 126.317703,204.460938 127.359375,204.460938 C128.463547,204.460938 129.351559,204.773434 130.023438,205.398438 C130.695316,206.023441 131.020833,206.861974 131,207.914062 L130.984375,207.960938 L128.84375,207.960938 C128.84375,207.372393 128.712241,206.925783 128.449219,206.621094 C128.186197,206.316405 127.809898,206.164062 127.320313,206.164062 C126.898435,206.164062 126.570314,206.303384 126.335938,206.582031 C126.101561,206.860678 125.984375,207.208331 125.984375,207.625 C125.984375,208.010419 126.117186,208.328124 126.382813,208.578125 C126.648439,208.828126 127.104163,209.101561 127.75,209.398438 C128.848964,209.763023 129.680987,210.223956 130.246094,210.78125 C130.811201,211.338544 131.09375,212.088537 131.09375,213.03125 C131.09375,214.005213 130.763024,214.770831 130.101563,215.328125 C129.440101,215.885419 128.562505,216.164062 127.46875,216.164062 C126.39062,216.164062 125.468754,215.863284 124.703125,215.261719 C123.937496,214.660153 123.567708,213.744798 123.59375,212.515625 L123.609375,212.46875 L125.757813,212.46875 C125.757813,213.182295 125.902342,213.695311 126.191406,214.007812 C126.48047,214.320314 126.906247,214.476562 127.46875,214.476562 C127.942711,214.476562 128.298176,214.346355 128.535156,214.085938 C128.772137,213.82552 128.890625,213.479169 128.890625,213.046875 Z M141.367188,206.351562 L138.695313,206.351562 L138.695313,216 L136.484375,216 L136.484375,206.351562 L133.882813,206.351562 L133.882813,204.625 L141.367188,204.625 L141.367188,206.351562 Z M148.875,213.539062 L146.03125,213.539062 L145.390625,216 L143.09375,216 L146.320313,204.625 L148.601563,204.625 L151.828125,216 L149.523438,216 L148.875,213.539062 Z M146.484375,211.804688 L148.421875,211.804688 L147.476563,208.195312 L147.429688,208.195312 L146.484375,211.804688 Z M162.273438,214.5 C161.950519,214.953127 161.483076,215.343748 160.871094,215.671875 C160.259112,216.000002 159.468755,216.164062 158.5,216.164062 C157.270827,216.164062 156.28516,215.805993 155.542969,215.089844 C154.800778,214.373694 154.429688,213.356777 154.429688,212.039062 L154.429688,208.585938 C154.429688,207.273431 154.790361,206.257816 155.511719,205.539062 C156.233077,204.820309 157.187494,204.460938 158.375,204.460938 C159.61459,204.460938 160.549476,204.753903 161.179688,205.339844 C161.809899,205.925784 162.114583,206.760411 162.09375,207.84375 L162.078125,207.890625 L160.007813,207.890625 C160.007813,207.296872 159.877605,206.864585 159.617188,206.59375 C159.35677,206.322915 158.963544,206.1875 158.4375,206.1875 C157.869789,206.1875 157.427085,206.385415 157.109375,206.78125 C156.791665,207.177085 156.632813,207.773434 156.632813,208.570312 L156.632813,212.039062 C156.632813,212.851567 156.794269,213.455727 157.117188,213.851562 C157.440106,214.247398 157.901039,214.445312 158.5,214.445312 C158.927085,214.445312 159.26302,214.394532 159.507813,214.292969 C159.752605,214.191406 159.940104,214.057292 160.070313,213.890625 L160.070313,211.59375 L158.335938,211.59375 L158.335938,210.070312 L162.273438,210.070312 L162.273438,214.5 Z M171.539063,210.976562 L168.0625,210.976562 L168.0625,214.28125 L172.226563,214.28125 L172.226563,216 L165.859375,216 L165.859375,204.625 L172.210938,204.625 L172.210938,206.351562 L168.0625,206.351562 L168.0625,209.257812 L171.539063,209.257812 L171.539063,210.976562 Z M177.828125,211.882812 L177.828125,216 L175.625,216 L175.625,204.625 L179.429688,204.625 C180.570318,204.625 181.473955,204.959632 182.140625,205.628906 C182.807295,206.29818 183.140625,207.174474 183.140625,208.257812 C183.140625,209.34636 182.807295,210.222653 182.140625,210.886719 C181.473955,211.550785 180.570318,211.882812 179.429688,211.882812 L177.828125,211.882812 Z M177.828125,210.15625 L179.429688,210.15625 C179.924482,210.15625 180.30078,209.979168 180.558594,209.625 C180.816408,209.270832 180.945313,208.820315 180.945313,208.273438 C180.945313,207.716143 180.816408,207.256512 180.558594,206.894531 C180.30078,206.53255 179.924482,206.351562 179.429688,206.351562 L177.828125,206.351562 L177.828125,210.15625 Z M188.75,214.28125 L192.992188,214.28125 L192.992188,216 L186.546875,216 L186.546875,204.625 L188.75,204.625 L188.75,214.28125 Z M201.992188,210.976562 L198.515625,210.976562 L198.515625,214.28125 L202.679688,214.28125 L202.679688,216 L196.3125,216 L196.3125,204.625 L202.664063,204.625 L202.664063,206.351562 L198.515625,206.351562 L198.515625,209.257812 L201.992188,209.257812 L201.992188,210.976562 Z M208.882813,211.226562 L208.28125,211.226562 L208.28125,216 L206.078125,216 L206.078125,204.625 L208.28125,204.625 L208.28125,209.28125 L208.734375,209.28125 L211.148438,204.625 L213.882813,204.625 L210.601563,209.820312 L214.125,216 L211.3125,216 L208.882813,211.226562 Z M225.992188,213.09375 L226.085938,213.570312 L226.132813,213.570312 L226.226563,213.117188 L228.195313,204.625 L230.515625,204.625 L227.257813,216 L224.96875,216 L221.726563,204.625 L224.046875,204.625 L225.992188,213.09375 Z M241.421875,211.90625 C241.421875,213.244798 241.044275,214.289059 240.289063,215.039062 C239.53385,215.789066 238.528652,216.164062 237.273438,216.164062 C236.018223,216.164062 235.015629,215.789066 234.265625,215.039062 C233.515621,214.289059 233.140625,213.244798 233.140625,211.90625 L233.140625,208.734375 C233.140625,207.401035 233.514319,206.355473 234.261719,205.597656 C235.009118,204.83984 236.01041,204.460938 237.265625,204.460938 C238.52084,204.460938 239.52734,204.83984 240.285156,205.597656 C241.042973,206.355473 241.421875,207.401035 241.421875,208.734375 L241.421875,211.90625 Z M239.226563,208.710938 C239.226563,207.882808 239.058595,207.257815 238.722656,206.835938 C238.386717,206.41406 237.901045,206.203125 237.265625,206.203125 C236.624997,206.203125 236.143231,206.412758 235.820313,206.832031 C235.497394,207.251304 235.335938,207.8776 235.335938,208.710938 L235.335938,211.90625 C235.335938,212.750004 235.498696,213.38281 235.824219,213.804688 C236.149741,214.226565 236.632809,214.4375 237.273438,214.4375 C237.914066,214.4375 238.399738,214.226565 238.730469,213.804688 C239.0612,213.38281 239.226563,212.750004 239.226563,211.90625 L239.226563,208.710938 Z M253.03125,211.90625 C253.03125,213.244798 252.65365,214.289059 251.898438,215.039062 C251.143225,215.789066 250.138027,216.164062 248.882813,216.164062 C247.627598,216.164062 246.625004,215.789066 245.875,215.039062 C245.124996,214.289059 244.75,213.244798 244.75,211.90625 L244.75,208.734375 C244.75,207.401035 245.123694,206.355473 245.871094,205.597656 C246.618493,204.83984 247.619785,204.460938 248.875,204.460938 C250.130215,204.460938 251.136715,204.83984 251.894531,205.597656 C252.652348,206.355473 253.03125,207.401035 253.03125,208.734375 L253.03125,211.90625 Z M250.835938,208.710938 C250.835938,207.882808 250.66797,207.257815 250.332031,206.835938 C249.996092,206.41406 249.51042,206.203125 248.875,206.203125 C248.234372,206.203125 247.752606,206.412758 247.429688,206.832031 C247.106769,207.251304 246.945313,207.8776 246.945313,208.710938 L246.945313,211.90625 C246.945313,212.750004 247.108071,213.38281 247.433594,213.804688 C247.759116,214.226565 248.242184,214.4375 248.882813,214.4375 C249.523441,214.4375 250.009113,214.226565 250.339844,213.804688 C250.670575,213.38281 250.835938,212.750004 250.835938,211.90625 L250.835938,208.710938 Z M258.773438,211.4375 L258.773438,216 L256.570313,216 L256.570313,204.632812 L259.976563,204.632812 C261.106776,204.632812 261.996091,204.92708 262.644531,205.515625 C263.292972,206.10417 263.617188,206.924474 263.617188,207.976562 C263.617188,208.565107 263.48047,209.075519 263.207031,209.507812 C262.933592,209.940106 262.539065,210.283853 262.023438,210.539062 C262.61719,210.73698 263.04427,211.065102 263.304688,211.523438 C263.565105,211.981773 263.695313,212.554684 263.695313,213.242188 L263.695313,214.070312 C263.695313,214.388022 263.73177,214.721352 263.804688,215.070312 C263.877605,215.419273 264.007812,215.674478 264.195313,215.835938 L264.195313,216 L261.914063,216 C261.73177,215.833333 261.615886,215.5612 261.566406,215.183594 C261.516927,214.805988 261.492188,214.429689 261.492188,214.054688 L261.492188,213.257812 C261.492188,212.679685 261.372397,212.231772 261.132813,211.914062 C260.893228,211.596353 260.549481,211.4375 260.101563,211.4375 L258.773438,211.4375 Z M258.773438,209.71875 L259.960938,209.71875 C260.434898,209.71875 260.795572,209.576824 261.042969,209.292969 C261.290366,209.009113 261.414063,208.606773 261.414063,208.085938 C261.414063,207.554685 261.291668,207.132814 261.046875,206.820312 C260.802082,206.507811 260.445315,206.351562 259.976563,206.351562 L258.773438,206.351562 L258.773438,209.71875 Z M280.390625,212.46875 L280.40625,212.515625 C280.427083,213.734381 280.115889,214.647132 279.472656,215.253906 C278.829424,215.86068 277.911464,216.164062 276.71875,216.164062 C275.494786,216.164062 274.523441,215.803389 273.804688,215.082031 C273.085934,214.360673 272.726563,213.335944 272.726563,212.007812 L272.726563,208.632812 C272.726563,207.309889 273.074215,206.283858 273.769531,205.554688 C274.464847,204.825517 275.40364,204.460938 276.585938,204.460938 C277.830735,204.460938 278.786455,204.763018 279.453125,205.367188 C280.119795,205.971357 280.442708,206.885411 280.421875,208.109375 L280.40625,208.15625 L278.265625,208.15625 C278.265625,207.42708 278.13672,206.916668 277.878906,206.625 C277.621092,206.333332 277.190107,206.1875 276.585938,206.1875 C276.033851,206.1875 275.619793,206.386717 275.34375,206.785156 C275.067707,207.183596 274.929688,207.794267 274.929688,208.617188 L274.929688,212.007812 C274.929688,212.835942 275.078124,213.449217 275.375,213.847656 C275.671876,214.246096 276.119789,214.445312 276.71875,214.445312 C277.265628,214.445312 277.658853,214.300783 277.898438,214.011719 C278.138022,213.722655 278.257813,213.208337 278.257813,212.46875 L280.390625,212.46875 Z M285.992188,211.4375 L285.992188,216 L283.789063,216 L283.789063,204.632812 L287.195313,204.632812 C288.325526,204.632812 289.214841,204.92708 289.863281,205.515625 C290.511722,206.10417 290.835938,206.924474 290.835938,207.976562 C290.835938,208.565107 290.69922,209.075519 290.425781,209.507812 C290.152342,209.940106 289.757815,210.283853 289.242188,210.539062 C289.83594,210.73698 290.26302,211.065102 290.523438,211.523438 C290.783855,211.981773 290.914063,212.554684 290.914063,213.242188 L290.914063,214.070312 C290.914063,214.388022 290.95052,214.721352 291.023438,215.070312 C291.096355,215.419273 291.226562,215.674478 291.414063,215.835938 L291.414063,216 L289.132813,216 C288.95052,215.833333 288.834636,215.5612 288.785156,215.183594 C288.735677,214.805988 288.710938,214.429689 288.710938,214.054688 L288.710938,213.257812 C288.710938,212.679685 288.591147,212.231772 288.351563,211.914062 C288.111978,211.596353 287.768231,211.4375 287.320313,211.4375 L285.992188,211.4375 Z M285.992188,209.71875 L287.179688,209.71875 C287.653648,209.71875 288.014322,209.576824 288.261719,209.292969 C288.509116,209.009113 288.632813,208.606773 288.632813,208.085938 C288.632813,207.554685 288.510418,207.132814 288.265625,206.820312 C288.020832,206.507811 287.664065,206.351562 287.195313,206.351562 L285.992188,206.351562 L285.992188,209.71875 Z M300.296875,210.976562 L296.820313,210.976562 L296.820313,214.28125 L300.984375,214.28125 L300.984375,216 L294.617188,216 L294.617188,204.625 L300.96875,204.625 L300.96875,206.351562 L296.820313,206.351562 L296.820313,209.257812 L300.296875,209.257812 L300.296875,210.976562 Z M309.429688,213.539062 L306.585938,213.539062 L305.945313,216 L303.648438,216 L306.875,204.625 L309.15625,204.625 L312.382813,216 L310.078125,216 L309.429688,213.539062 Z M307.039063,211.804688 L308.976563,211.804688 L308.03125,208.195312 L307.984375,208.195312 L307.039063,211.804688 Z M321.132813,206.351562 L318.460938,206.351562 L318.460938,216 L316.25,216 L316.25,206.351562 L313.648438,206.351562 L313.648438,204.625 L321.132813,204.625 L321.132813,206.351562 Z M326.53125,216 L324.335938,216 L324.335938,204.625 L326.53125,204.625 L326.53125,216 Z M336.09375,210.976562 L332.617188,210.976562 L332.617188,214.28125 L336.78125,214.28125 L336.78125,216 L330.414063,216 L330.414063,204.625 L336.765625,204.625 L336.765625,206.351562 L332.617188,206.351562 L332.617188,209.257812 L336.09375,209.257812 L336.09375,210.976562 Z M343.632813,213.09375 L343.726563,213.570312 L343.773438,213.570312 L343.867188,213.117188 L345.835938,204.625 L348.15625,204.625 L344.898438,216 L342.609375,216 L339.367188,204.625 L341.6875,204.625 L343.632813,213.09375 Z M356.773438,210.976562 L353.296875,210.976562 L353.296875,214.28125 L357.460938,214.28125 L357.460938,216 L351.09375,216 L351.09375,204.625 L357.445313,204.625 L357.445313,206.351562 L353.296875,206.351562 L353.296875,209.257812 L356.773438,209.257812 L356.773438,210.976562 Z M369.851563,213.09375 L369.945313,213.570312 L369.992188,213.570312 L370.085938,213.117188 L372.054688,204.625 L374.375,204.625 L371.117188,216 L368.828125,216 L365.585938,204.625 L367.90625,204.625 L369.851563,213.09375 Z M385.28125,211.90625 C385.28125,213.244798 384.90365,214.289059 384.148438,215.039062 C383.393225,215.789066 382.388027,216.164062 381.132813,216.164062 C379.877598,216.164062 378.875004,215.789066 378.125,215.039062 C377.374996,214.289059 377,213.244798 377,211.90625 L377,208.734375 C377,207.401035 377.373694,206.355473 378.121094,205.597656 C378.868493,204.83984 379.869785,204.460938 381.125,204.460938 C382.380215,204.460938 383.386715,204.83984 384.144531,205.597656 C384.902348,206.355473 385.28125,207.401035 385.28125,208.734375 L385.28125,211.90625 Z M383.085938,208.710938 C383.085938,207.882808 382.91797,207.257815 382.582031,206.835938 C382.246092,206.41406 381.76042,206.203125 381.125,206.203125 C380.484372,206.203125 380.002606,206.412758 379.679688,206.832031 C379.356769,207.251304 379.195313,207.8776 379.195313,208.710938 L379.195313,211.90625 C379.195313,212.750004 379.358071,213.38281 379.683594,213.804688 C380.009116,214.226565 380.492184,214.4375 381.132813,214.4375 C381.773441,214.4375 382.259113,214.226565 382.589844,213.804688 C382.920575,213.38281 383.085938,212.750004 383.085938,211.90625 L383.085938,208.710938 Z M396.4375,214.5 C396.114582,214.953127 395.647138,215.343748 395.035156,215.671875 C394.423174,216.000002 393.632817,216.164062 392.664063,216.164062 C391.43489,216.164062 390.449222,215.805993 389.707031,215.089844 C388.96484,214.373694 388.59375,213.356777 388.59375,212.039062 L388.59375,208.585938 C388.59375,207.273431 388.954423,206.257816 389.675781,205.539062 C390.397139,204.820309 391.351557,204.460938 392.539063,204.460938 C393.778652,204.460938 394.713539,204.753903 395.34375,205.339844 C395.973961,205.925784 396.278646,206.760411 396.257813,207.84375 L396.242188,207.890625 L394.171875,207.890625 C394.171875,207.296872 394.041668,206.864585 393.78125,206.59375 C393.520832,206.322915 393.127607,206.1875 392.601563,206.1875 C392.033851,206.1875 391.591147,206.385415 391.273438,206.78125 C390.955728,207.177085 390.796875,207.773434 390.796875,208.570312 L390.796875,212.039062 C390.796875,212.851567 390.958332,213.455727 391.28125,213.851562 C391.604168,214.247398 392.065101,214.445312 392.664063,214.445312 C393.091148,214.445312 393.427082,214.394532 393.671875,214.292969 C393.916668,214.191406 394.104166,214.057292 394.234375,213.890625 L394.234375,211.59375 L392.5,211.59375 L392.5,210.070312 L396.4375,210.070312 L396.4375,214.5 Z M405.703125,210.976562 L402.226563,210.976562 L402.226563,214.28125 L406.390625,214.28125 L406.390625,216 L400.023438,216 L400.023438,204.625 L406.375,204.625 L406.375,206.351562 L402.226563,206.351562 L402.226563,209.257812 L405.703125,209.257812 L405.703125,210.976562 Z M411.992188,214.28125 L416.234375,214.28125 L416.234375,216 L409.789063,216 L409.789063,204.625 L411.992188,204.625 L411.992188,214.28125 Z M424.570313,213.046875 C424.570313,212.593748 424.454428,212.235678 424.222656,211.972656 C423.990884,211.709634 423.575524,211.453126 422.976563,211.203125 C421.80989,210.791665 420.932295,210.325523 420.34375,209.804688 C419.755205,209.283852 419.460938,208.554692 419.460938,207.617188 C419.460938,206.684891 419.796872,205.925784 420.46875,205.339844 C421.140628,204.753903 421.997391,204.460938 423.039063,204.460938 C424.143235,204.460938 425.031247,204.773434 425.703125,205.398438 C426.375003,206.023441 426.700521,206.861974 426.679688,207.914062 L426.664063,207.960938 L424.523438,207.960938 C424.523438,207.372393 424.391928,206.925783 424.128906,206.621094 C423.865884,206.316405 423.489586,206.164062 423,206.164062 C422.578123,206.164062 422.250001,206.303384 422.015625,206.582031 C421.781249,206.860678 421.664063,207.208331 421.664063,207.625 C421.664063,208.010419 421.796874,208.328124 422.0625,208.578125 C422.328126,208.828126 422.783851,209.101561 423.429688,209.398438 C424.528651,209.763023 425.360674,210.223956 425.925781,210.78125 C426.490888,211.338544 426.773438,212.088537 426.773438,213.03125 C426.773438,214.005213 426.442712,214.770831 425.78125,215.328125 C425.119788,215.885419 424.242193,216.164062 423.148438,216.164062 C422.070307,216.164062 421.148441,215.863284 420.382813,215.261719 C419.617184,214.660153 419.247396,213.744798 419.273438,212.515625 L419.289063,212.46875 L421.4375,212.46875 C421.4375,213.182295 421.58203,213.695311 421.871094,214.007812 C422.160158,214.320314 422.585935,214.476562 423.148438,214.476562 C423.622398,214.476562 423.977863,214.346355 424.214844,214.085938 C424.451824,213.82552 424.570313,213.479169 424.570313,213.046875 Z"/>
    <g fill="#124235" transform="matrix(-1 0 0 1 491 204)">
      <path d="M10,8 L34.0003921,8 C34.1847055,8 36,8 36,5.99969245 C36,3.99938489 34.1848186,4 34.0003921,4 L10,4 L6,5.99969245 L10,8 Z M0,6 L9.0001038,0 L34.0003921,0 C34.0003921,0 40.0004613,0 40,6 C39.9995387,12 34.0003921,12 34.0003921,12 L9.0001038,12 L0,6 Z"/>
      <polygon points="10 8 12 8 12 4 10 4"/>
      <polygon points="32 8 34 8 34 4 32 4"/>
      <polygon points="12 5 12 7 32 7 32 5"/>
    </g>
    <g fill="#124235" transform="matrix(-1 0 0 1 99 204)">
      <path d="M32.0002927,8 L32.0002927,4 L3.99970728,4 L3.99970728,8 L32.0002927,8 Z M0,9.9914698 L0,2.0085302 C0,0.899249601 0.889892578,0 1.99970728,0 L34.0002927,0 C35.1047006,0 36,0.901950359 36,2.0085302 L36,9.9914698 C36,11.1007504 35.1101074,12 34.0002927,12 L1.99970728,12 C0.895299444,12 0,11.0980496 0,9.9914698 Z"/>
      <polygon points="27 7 29 7 29 4 27 4"/>
      <polygon points="23 6 25 6 25 4 23 4"/>
      <polygon points="15 7 17 7 17 4 15 4"/>
      <polygon points="19 6 21 6 21 4 19 4"/>
      <polygon points="11 6 13 6 13 4 11 4"/>
      <polygon points="7 6 9 6 9 4 7 4"/>
    </g>
    <path fill="#124235" d="M185.441406 52.1542969L183.308594 52.1542969 182.828125 54 181.105469 54 183.525391 45.46875 185.236328 45.46875 187.65625 54 185.927734 54 185.441406 52.1542969zM183.648438 50.8535156L185.101562 50.8535156 184.392578 48.1464844 184.357422 48.1464844 183.648438 50.8535156zM193.044922 51.796875L193.080078 51.796875 194.679688 45.46875 196.841797 45.46875 196.841797 54 195.201172 54 195.201172 48.6269531 195.166016 48.6210938 193.625 54 192.517578 54 190.988281 48.6621094 190.953125 48.6679688 190.953125 54 189.306641 54 189.306641 45.46875 191.457031 45.46875 193.044922 51.796875zM202.886719 51.7851562C202.886719 51.4453108 202.799806 51.1767588 202.625977 50.9794922 202.452148 50.7822256 202.140627 50.5898447 201.691406 50.4023438 200.816402 50.0937485 200.158205 49.7441426 199.716797 49.3535156 199.275388 48.9628887 199.054688 48.4160191 199.054688 47.7128906 199.054688 47.0136684 199.306638 46.4443381 199.810547 46.0048828 200.314456 45.5654275 200.957027 45.3457031 201.738281 45.3457031 202.56641 45.3457031 203.232419 45.5800758 203.736328 46.0488281 204.240237 46.5175805 204.484375 47.1464804 204.46875 47.9355469L204.457031 47.9707031 202.851562 47.9707031C202.851562 47.5292947 202.752931 47.1943371 202.555664 46.9658203 202.358397 46.7373035 202.076174 46.6230469 201.708984 46.6230469 201.392577 46.6230469 201.146485 46.727538 200.970703 46.9365234 200.794921 47.1455089 200.707031 47.4062484 200.707031 47.71875 200.707031 48.0078139 200.80664 48.2460928 201.005859 48.4335938 201.205079 48.6210947 201.546873 48.8261708 202.03125 49.0488281 202.855473 49.322267 203.47949 49.6679667 203.90332 50.0859375 204.327151 50.5039083 204.539062 51.0664027 204.539062 51.7734375 204.539062 52.5039099 204.291018 53.0781229 203.794922 53.4960938 203.298826 53.9140646 202.640629 54.1230469 201.820312 54.1230469 201.011715 54.1230469 200.320315 53.8974632 199.746094 53.4462891 199.171872 52.9951149 198.894531 52.3085984 198.914062 51.3867188L198.925781 51.3515625 200.537109 51.3515625C200.537109 51.8867214 200.645507 52.2714832 200.862305 52.5058594 201.079103 52.7402355 201.398435 52.8574219 201.820312 52.8574219 202.175783 52.8574219 202.442382 52.7597666 202.620117 52.5644531 202.797852 52.3691396 202.886719 52.1093766 202.886719 51.7851562L202.886719 51.7851562zM351.847656 54L346.621094 54 346.621094 52.8984375 348.982422 49.9160156C349.318361 49.4628884 349.55957 49.0722673 349.706055 48.7441406 349.85254 48.416014 349.925781 48.1171888 349.925781 47.8476562 349.925781 47.4765606 349.854493 47.1826183 349.711914 46.9658203 349.569335 46.7490224 349.349611 46.640625 349.052734 46.640625 348.744139 46.640625 348.506837 46.7783189 348.34082 47.0537109 348.174804 47.3291029 348.091797 47.6816385 348.091797 48.1113281L346.46875 48.1113281 346.451172 48.0761719C346.435547 47.3144493 346.666013 46.668948 347.142578 46.1396484 347.619143 45.6103489 348.255855 45.3457031 349.052734 45.3457031 349.861332 45.3457031 350.487302 45.5693337 350.930664 46.0166016 351.374026 46.4638694 351.595703 47.0722618 351.595703 47.8417969 351.595703 48.3613307 351.467775 48.8398416 351.211914 49.2773438 350.956053 49.7148459 350.527347 50.2988245 349.925781 51.0292969L348.765625 52.7109375 351.847656 52.7109375 351.847656 54zM359.076172 50.90625C359.076172 51.9101613 358.83594 52.6972628 358.355469 53.2675781 357.874998 53.8378935 357.242191 54.1230469 356.457031 54.1230469 355.660152 54.1230469 355.02051 53.8378935 354.538086 53.2675781 354.055662 52.6972628 353.814453 51.9101613 353.814453 50.90625L353.814453 48.5683594C353.814453 47.5722606 354.054685 46.7861357 354.535156 46.2099609 355.015627 45.6337862 355.65234 45.3457031 356.445313 45.3457031 357.234379 45.3457031 357.870115 45.6337862 358.352539 46.2099609 358.834963 46.7861357 359.076172 47.5722606 359.076172 48.5683594L359.076172 50.90625zM357.417969 48.421875C357.417969 47.8593722 357.331056 47.4218766 357.157227 47.109375 356.983398 46.7968734 356.746095 46.640625 356.445313 46.640625 356.136717 46.640625 355.897462 46.7968734 355.727539 47.109375 355.557616 47.4218766 355.472656 47.8593722 355.472656 48.421875L355.472656 51.0410156C355.472656 51.6152372 355.558593 52.0576156 355.730469 52.3681641 355.902345 52.6787125 356.14453 52.8339844 356.457031 52.8339844 356.757814 52.8339844 356.993163 52.6787125 357.163086 52.3681641 357.333009 52.0576156 357.417969 51.6152372 357.417969 51.0410156L357.417969 48.421875zM364.933594 54L363.275391 54 363.275391 46.9042969 361.716797 46.9453125 361.716797 45.6738281 364.933594 45.3457031 364.933594 54zM371.494141 45.3457031C371.794923 45.3457031 372.069335 45.3759763 372.317383 45.4365234 372.565431 45.4970706 372.818358 45.58789 373.076172 45.7089844L372.789063 46.9335938C372.562499 46.8437496 372.354493 46.7763674 372.165039 46.7314453 371.975585 46.6865232 371.755861 46.6640625 371.505859 46.6640625 371.068357 46.6640625 370.714845 46.8544903 370.445313 47.2353516 370.17578 47.6162128 370.041016 48.1542934 370.041016 48.8496094L370.041016 49.1074219C370.240235 48.8925771 370.479491 48.7265631 370.758789 48.609375 371.038087 48.4921869 371.351561 48.4335938 371.699219 48.4335938 372.355472 48.4335938 372.865233 48.6933568 373.228516 49.2128906 373.591799 49.7324245 373.773438 50.4140583 373.773438 51.2578125 373.773438 52.1015667 373.530276 52.7900364 373.043945 53.3232422 372.557615 53.856448 371.925785 54.1230469 371.148438 54.1230469 370.332027 54.1230469 369.667971 53.8203155 369.15625 53.2148438 368.644529 52.609372 368.388672 51.7812553 368.388672 50.7304688L368.388672 48.8847656C368.388672 47.8066352 368.679685 46.9472688 369.261719 46.3066406 369.843753 45.6660124 370.587886 45.3457031 371.494141 45.3457031L371.494141 45.3457031zM371.136719 49.7050781C370.878905 49.7050781 370.658204 49.7509761 370.474609 49.8427734 370.291015 49.9345708 370.146485 50.0624992 370.041016 50.2265625L370.041016 50.7539062C370.041016 51.4140658 370.141601 51.9257794 370.342773 52.2890625 370.543946 52.6523456 370.812498 52.8339844 371.148438 52.8339844 371.441408 52.8339844 371.67578 52.6835953 371.851563 52.3828125 372.027345 52.0820297 372.115234 51.7070335 372.115234 51.2578125 372.115234 50.7734351 372.026368 50.3935561 371.848633 50.1181641 371.670898 49.8427721 371.433595 49.7050781 371.136719 49.7050781L371.136719 49.7050781z"/>
  </g>
</svg>
